<?xml version="1.0" encoding="UTF-8"?><svg id="_レイヤー_2" xmlns="http://www.w3.org/2000/svg" viewBox="0 0 435.57 223.28"><defs><style>.cls-1{fill:#fff676;}</style></defs><g id="_テキスト要素"><path class="cls-1" d="M103.53,89.12h17.26v28.44h-17.26v29.39h-34.51v-29.39H0v-23.89L54.61,3.98h48.92v85.14ZM69.02,89.12v-56.32l-32.8,56.32h32.8Z"/><path class="cls-1" d="M372.61,59.73c1.01.13,1.86.19,2.56.19h1.8c4.67,0,8.47-1.39,11.38-4.17,2.91-2.78,4.36-6.38,4.36-10.81s-1.36-7.77-4.08-10.43c-2.72-2.65-6.23-3.98-10.52-3.98-4.55,0-8.22,1.52-11,4.55-2.78,3.03-4.17,6.95-4.17,11.76h-34.32c.88-7.46,2.75-14.09,5.59-19.91,2.84-5.81,6.48-10.71,10.9-14.7,4.42-3.98,9.61-7.02,15.55-9.1,5.94-2.09,12.52-3.13,19.72-3.13s13.49.98,19.25,2.94c5.75,1.96,10.68,4.74,14.79,8.34,4.11,3.6,7.27,7.96,9.48,13.08,2.21,5.12,3.32,10.84,3.32,17.16,0,6.83-1.3,12.42-3.89,16.78-2.59,4.36-6.29,8.12-11.09,11.28,7.33,2.28,13.05,6.35,17.16,12.23,4.11,5.88,6.16,13.12,6.16,21.71,0,7.08-1.39,13.53-4.17,19.34-2.78,5.82-6.67,10.81-11.66,14.98-5,4.17-10.94,7.39-17.82,9.67-6.89,2.28-14.45,3.41-22.66,3.41-11,0-20.92-2.15-29.77-6.45-8.85-4.3-15.93-11.12-21.24-20.48-2.4-4.17-4.01-8.34-4.83-12.52-.82-4.17-1.23-8.41-1.23-12.7h36.79c.25,6.7,2.21,11.79,5.88,15.26,3.67,3.48,8.6,5.21,14.79,5.21,6.57,0,11.38-1.77,14.41-5.31,3.03-3.54,4.55-7.9,4.55-13.08,0-6.19-1.83-10.87-5.5-14.03-3.67-3.16-8.03-4.74-13.08-4.74-1.27,0-2.46.09-3.6.28-1.14.19-2.4.41-3.79.66v-23.32Z"/><path class="cls-1" d="M152.94,211.75h-10.79v11.15h-5.62v-27.29h17.77v4.55h-12.14v7.05h10.79v4.54Z"/><path class="cls-1" d="M156.36,212.58c0-2.01.39-3.8,1.16-5.38s1.89-2.79,3.35-3.65c1.46-.86,3.15-1.29,5.07-1.29,2.74,0,4.97.84,6.7,2.51,1.73,1.67,2.7,3.95,2.89,6.82l.04,1.39c0,3.11-.87,5.61-2.6,7.49-1.74,1.88-4.07,2.82-6.99,2.82s-5.26-.94-7-2.81c-1.74-1.87-2.61-4.42-2.61-7.65v-.24ZM161.77,212.96c0,1.93.36,3.4,1.09,4.42.72,1.02,1.76,1.53,3.11,1.53s2.34-.5,3.07-1.51c.74-1.01,1.11-2.62,1.11-4.83,0-1.89-.37-3.35-1.11-4.39-.74-1.04-1.77-1.56-3.11-1.56s-2.35.52-3.07,1.55c-.73,1.03-1.09,2.63-1.09,4.8Z"/><path class="cls-1" d="M190.3,207.71c-.74-.1-1.39-.15-1.95-.15-2.05,0-3.39.69-4.03,2.08v13.27h-5.42v-20.28h5.12l.15,2.42c1.09-1.86,2.59-2.79,4.52-2.79.6,0,1.16.08,1.69.24l-.08,5.21Z"/><path class="cls-1" d="M211.18,212.95c0,3.25-.69,5.78-2.08,7.6-1.39,1.82-3.32,2.73-5.81,2.73-2.2,0-3.96-.84-5.27-2.53l-.24,2.16h-4.87v-28.79h5.42v10.33c1.25-1.46,2.89-2.19,4.93-2.19,2.47,0,4.41.91,5.82,2.73,1.41,1.82,2.11,4.38,2.11,7.67v.3ZM205.76,212.56c0-2.05-.33-3.54-.97-4.49-.65-.94-1.62-1.42-2.91-1.42-1.72,0-2.91.71-3.56,2.12v8c.66,1.42,1.86,2.14,3.6,2.14s2.9-.86,3.45-2.59c.26-.83.39-2.08.39-3.77Z"/><path class="cls-1" d="M214.48,197.38c0-.81.27-1.48.82-2,.54-.53,1.28-.79,2.22-.79s1.66.26,2.21.79c.55.52.82,1.19.82,2s-.28,1.5-.83,2.02c-.56.53-1.29.79-2.2.79s-1.65-.26-2.2-.79c-.56-.52-.83-1.2-.83-2.02ZM220.23,222.91h-5.44v-20.28h5.44v20.28Z"/><path class="cls-1" d="M223.85,212.62c0-3.16.71-5.68,2.13-7.55s3.36-2.81,5.82-2.81c1.97,0,3.6.74,4.89,2.21v-10.35h5.44v28.79h-4.89l-.26-2.16c-1.35,1.69-3.09,2.53-5.21,2.53-2.39,0-4.3-.94-5.74-2.82-1.44-1.88-2.17-4.49-2.17-7.84ZM229.26,213.02c0,1.9.33,3.36.99,4.37s1.62,1.52,2.89,1.52c1.67,0,2.85-.71,3.54-2.12v-8.02c-.67-1.41-1.84-2.12-3.5-2.12-2.61,0-3.92,2.12-3.92,6.36Z"/><path class="cls-1" d="M245.48,212.62c0-3.16.71-5.68,2.13-7.55s3.36-2.81,5.82-2.81c1.97,0,3.6.74,4.89,2.21v-10.35h5.44v28.79h-4.89l-.26-2.16c-1.35,1.69-3.09,2.53-5.21,2.53-2.39,0-4.3-.94-5.74-2.82-1.44-1.88-2.16-4.49-2.16-7.84ZM250.89,213.02c0,1.9.33,3.36.99,4.37.66,1.01,1.62,1.52,2.89,1.52,1.67,0,2.85-.71,3.54-2.12v-8.02c-.67-1.41-1.84-2.12-3.5-2.12-2.61,0-3.92,2.12-3.92,6.36Z"/><path class="cls-1" d="M277.28,223.28c-2.97,0-5.39-.91-7.26-2.74-1.87-1.82-2.8-4.25-2.8-7.29v-.52c0-2.04.39-3.86,1.18-5.46s1.9-2.84,3.34-3.71c1.44-.87,3.09-1.3,4.94-1.3,2.77,0,4.96.88,6.55,2.62,1.59,1.75,2.39,4.23,2.39,7.44v2.21h-12.91c.17,1.32.7,2.39,1.58,3.19s2,1.2,3.34,1.2c2.09,0,3.72-.76,4.89-2.27l2.66,2.98c-.81,1.15-1.91,2.05-3.3,2.69-1.39.64-2.92.97-4.61.97ZM276.66,206.62c-1.08,0-1.95.36-2.61,1.09-.67.73-1.1,1.77-1.28,3.12h7.53v-.43c-.03-1.21-.35-2.14-.97-2.8s-1.51-.99-2.66-.99Z"/><path class="cls-1" d="M293.68,202.63l.17,2.34c1.45-1.81,3.39-2.72,5.83-2.72,2.15,0,3.75.63,4.8,1.89,1.05,1.26,1.59,3.15,1.61,5.66v13.1h-5.42v-12.97c0-1.15-.25-1.98-.75-2.5s-1.33-.78-2.49-.78c-1.53,0-2.67.65-3.43,1.95v14.3h-5.42v-20.28h5.1Z"/></g><g id="GIF部分"><rect class="cls-1" x="144.84" y=".06" width="152.52" height="152.52" rx="76.26" ry="76.26"/><path d="M217.51,68.56c-.45,3.85.3,7.54.74,11.29.3,2.57.52,5.16,1.01,7.7.21,1.09.86,2.22,1.61,3.07.96,1.09,2.23,1.92,3.27,2.79,2.33-.71,3.5-2.29,3.36-4.31-.24-3.34,1.28-6.87-1.05-10.06-.48-.66-.24-1.94-.15-2.91.08-.88.33-1.77.67-2.6.95-2.35.31-4.31-1.44-5.95-.77-.72-1.73-1.26-2.65-1.8-1.09-.64-2.23-1.2-3.34-1.8-1.21-.66-2.4-1.42-4.13-.59,2.02,2.07,2.44,2.38,2.11,5.18Z"/><path d="M233.46,106.75c-2.08-1.33-4.42-1.63-6.86-1.65-2.17-.02-4.34-.26-6.49-.51-2.28-.27-4.51-.65-6.8.1-.77.26-1.76.16-2.56-.06-1.3-.37-1.57.26-1.73,1.45.98.52,1.79.87,2.52,1.35,1.73,1.15,3.44,2.34,5.14,3.54,1.65,1.17,3.37,1.51,5.37.94.91-.26,1.96-.09,2.94-.04,1.69.09,3.4.47,5.05.28,1.3-.15,2.69-.76,3.73-1.57,1.65-1.3,1.47-2.69-.31-3.84Z"/><path d="M197.69,55.91c-1.3-.46-2.46-1.18-3.72-1.56-1.17-.35-2.52-.07-4.11-.07v5.62c.82,1.33,1.76,2.82,2.67,4.32,1.43,2.36,3.9,3.07,6.07,1.54,1.74-1.23,2.36-3.2,2.3-5.22-.06-2.14-1.3-3.95-3.22-4.63Z"/><path d="M247.95,58.64c-2.08-1.27-4.33-2.31-6.09-4.08-.17-.17-.56-.13-.81-.18-.49,1.18-1,2.3-1.41,3.45-.12.33-.08.81.07,1.14,1.16,2.54,2.25,5.12,3.58,7.57.87,1.59,2.77,2.16,4.11,1.46,2.1-1.09,2.75-3.07,2.96-5.23.19-1.93-.84-3.17-2.41-4.13Z"/></g></svg>