<?xml version="1.0" encoding="UTF-8"?><svg id="_レイヤー_2" xmlns="http://www.w3.org/2000/svg" viewBox="0 0 439.36 223.22"><defs><style>.cls-1{fill:#fff676;}</style></defs><g id="_テキスト要素"><path class="cls-1" d="M103.54,89.06h17.26v28.44h-17.26v29.39h-34.51v-29.39H0v-23.89L54.61,3.92h48.92v85.14ZM69.02,89.06v-56.32l-32.8,56.32h32.8Z"/><path class="cls-1" d="M422.1,89.06h17.26v28.44h-17.26v29.39h-34.51v-29.39h-69.02v-23.89L373.18,3.92h48.92v85.14ZM387.59,89.06v-56.32l-32.8,56.32h32.8Z"/><path class="cls-1" d="M156.39,222.84h-5.62l-10.95-17.96v17.96h-5.62v-27.29h5.62l10.96,17.99v-17.99h5.6v27.29Z"/><path class="cls-1" d="M160.1,212.52c0-2.01.39-3.8,1.16-5.38.77-1.57,1.89-2.79,3.34-3.65,1.46-.86,3.15-1.29,5.07-1.29,2.74,0,4.97.84,6.7,2.51,1.73,1.67,2.7,3.95,2.9,6.82l.04,1.39c0,3.11-.87,5.61-2.61,7.49-1.74,1.88-4.07,2.82-6.99,2.82s-5.26-.94-7-2.81-2.61-4.42-2.61-7.65v-.24ZM165.52,212.9c0,1.93.36,3.4,1.09,4.42.72,1.02,1.76,1.53,3.11,1.53s2.34-.5,3.07-1.51c.74-1.01,1.11-2.62,1.11-4.83,0-1.89-.37-3.35-1.11-4.39-.74-1.04-1.77-1.56-3.11-1.56s-2.35.52-3.07,1.55-1.09,2.63-1.09,4.8Z"/><path class="cls-1" d="M189.14,197.58v4.99h3.47v3.97h-3.47v10.12c0,.75.14,1.29.43,1.61.29.33.84.49,1.65.49.6,0,1.13-.04,1.59-.13v4.1c-1.06.32-2.16.49-3.28.49-3.8,0-5.74-1.92-5.81-5.75v-10.93h-2.96v-3.97h2.96v-4.99h5.42Z"/><path class="cls-1" d="M221.95,211.69h-10.79v11.15h-5.62v-27.29h17.77v4.55h-12.14v7.05h10.79v4.54Z"/><path class="cls-1" d="M225.36,212.52c0-2.01.39-3.8,1.16-5.38.77-1.57,1.89-2.79,3.34-3.65,1.46-.86,3.15-1.29,5.07-1.29,2.74,0,4.97.84,6.7,2.51,1.73,1.67,2.7,3.95,2.9,6.82l.04,1.39c0,3.11-.87,5.61-2.61,7.49-1.74,1.88-4.07,2.82-6.99,2.82s-5.26-.94-7-2.81-2.61-4.42-2.61-7.65v-.24ZM230.78,212.9c0,1.93.36,3.4,1.09,4.42.72,1.02,1.76,1.53,3.11,1.53s2.34-.5,3.07-1.51c.74-1.01,1.11-2.62,1.11-4.83,0-1.89-.37-3.35-1.11-4.39-.74-1.04-1.77-1.56-3.11-1.56s-2.35.52-3.07,1.55-1.09,2.63-1.09,4.8Z"/><path class="cls-1" d="M260.06,220.78c-1.34,1.62-3.19,2.44-5.55,2.44-2.17,0-3.83-.62-4.98-1.87-1.14-1.25-1.73-3.08-1.75-5.49v-13.29h5.42v13.12c0,2.11.96,3.17,2.89,3.17s3.1-.64,3.79-1.91v-14.37h5.44v20.28h-5.1l-.15-2.06Z"/><path class="cls-1" d="M274.37,202.56l.17,2.34c1.45-1.81,3.39-2.72,5.83-2.72,2.15,0,3.75.63,4.8,1.89s1.59,3.15,1.61,5.66v13.1h-5.42v-12.97c0-1.15-.25-1.98-.75-2.5s-1.33-.78-2.49-.78c-1.52,0-2.67.65-3.43,1.95v14.3h-5.42v-20.28h5.1Z"/><path class="cls-1" d="M290.04,212.55c0-3.16.71-5.68,2.13-7.55s3.36-2.81,5.82-2.81c1.97,0,3.6.74,4.89,2.21v-10.35h5.44v28.79h-4.89l-.26-2.16c-1.35,1.69-3.09,2.53-5.21,2.53-2.39,0-4.3-.94-5.75-2.82-1.44-1.88-2.16-4.49-2.16-7.84ZM295.46,212.96c0,1.9.33,3.36.99,4.37s1.62,1.52,2.89,1.52c1.67,0,2.85-.71,3.54-2.12v-8.02c-.67-1.41-1.84-2.12-3.5-2.12-2.61,0-3.92,2.12-3.92,6.36Z"/></g><g id="GIF部分"><rect class="cls-1" x="144.84" y="0" width="152.52" height="152.52" rx="76.26" ry="76.26"/><path d="M217.51,68.5c-.45,3.85.3,7.54.74,11.29.3,2.57.52,5.16,1.01,7.7.21,1.09.86,2.22,1.61,3.07.96,1.09,2.23,1.92,3.27,2.79,2.33-.71,3.5-2.29,3.36-4.31-.24-3.34,1.28-6.87-1.05-10.06-.48-.66-.24-1.94-.15-2.91.08-.88.33-1.77.67-2.6.95-2.35.31-4.31-1.44-5.95-.77-.72-1.73-1.26-2.65-1.8-1.09-.64-2.23-1.2-3.34-1.8-1.21-.66-2.4-1.42-4.13-.59,2.02,2.07,2.44,2.38,2.11,5.18Z"/><path d="M233.47,106.68c-2.08-1.33-4.42-1.63-6.86-1.65-2.17-.02-4.34-.26-6.49-.51-2.28-.27-4.51-.65-6.8.1-.77.26-1.76.16-2.56-.06-1.3-.37-1.57.26-1.73,1.45.98.52,1.79.87,2.52,1.35,1.73,1.15,3.44,2.34,5.14,3.54,1.65,1.17,3.37,1.51,5.37.94.91-.26,1.96-.09,2.94-.04,1.69.09,3.4.47,5.05.28,1.3-.15,2.69-.76,3.73-1.57,1.65-1.3,1.47-2.69-.31-3.84Z"/><path d="M197.7,55.85c-1.3-.46-2.46-1.18-3.72-1.56-1.17-.35-2.52-.07-4.11-.07v5.62c.82,1.33,1.76,2.82,2.67,4.32,1.43,2.36,3.9,3.07,6.07,1.54,1.74-1.23,2.36-3.2,2.3-5.22-.06-2.14-1.3-3.95-3.22-4.63Z"/><path d="M247.95,58.58c-2.08-1.27-4.33-2.31-6.09-4.08-.17-.17-.56-.13-.81-.18-.49,1.18-1,2.3-1.41,3.45-.12.33-.08.81.07,1.14,1.16,2.54,2.25,5.12,3.58,7.57.87,1.59,2.77,2.16,4.11,1.46,2.1-1.09,2.75-3.07,2.96-5.23.19-1.93-.84-3.17-2.41-4.13Z"/></g></svg>