<?xml version="1.0" encoding="UTF-8"?><svg id="_レイヤー_2" xmlns="http://www.w3.org/2000/svg" viewBox="0 0 443.19 223.22"><defs><style>.cls-1{fill:#fff676;}</style></defs><g id="_テキスト要素"><path class="cls-1" d="M96.14,35.4h-49.49l-2.46,15.74c2.28-.25,4.36-.47,6.26-.66,1.9-.19,3.85-.28,5.88-.28,7.21,0,13.91,1.26,20.1,3.79,6.19,2.53,11.5,6.01,15.93,10.43,4.42,4.43,7.9,9.74,10.43,15.93,2.53,6.2,3.79,12.96,3.79,20.29,0,7.71-1.42,14.67-4.27,20.86-2.84,6.2-6.86,11.47-12.04,15.83-5.18,4.36-11.5,7.71-18.96,10.05-7.46,2.34-15.74,3.51-24.84,3.51-8.6,0-16.78-1.04-24.56-3.13s-15.08-5.28-21.9-9.58l5.5-34.89c6.32,5.44,12.77,9.58,19.34,12.42,6.57,2.84,12.83,4.27,18.77,4.27,7.58,0,13.59-2.05,18.01-6.16,4.42-4.11,6.64-9.2,6.64-15.26,0-7.08-2.97-12.8-8.91-17.16-5.94-4.36-13.72-6.54-23.32-6.54-4.3,0-8.72.47-13.27,1.42s-9.04,2.44-13.46,4.46L21.24,3.92h74.9v31.48Z"/><path class="cls-1" d="M57.84,222.84h-5.62v-27.29h5.62v27.29Z"/><path class="cls-1" d="M67.68,202.56l.17,2.34c1.45-1.81,3.39-2.72,5.83-2.72,2.15,0,3.75.63,4.8,1.89,1.05,1.26,1.59,3.15,1.61,5.66v13.1h-5.42v-12.97c0-1.15-.25-1.98-.75-2.5s-1.33-.78-2.49-.78c-1.53,0-2.67.65-3.43,1.95v14.3h-5.42v-20.28h5.1Z"/><path class="cls-1" d="M90.68,197.58v4.99h3.47v3.97h-3.47v10.12c0,.75.14,1.29.43,1.61.29.33.84.49,1.65.49.6,0,1.13-.04,1.59-.13v4.1c-1.06.32-2.16.49-3.28.49-3.8,0-5.74-1.92-5.81-5.75v-10.93h-2.96v-3.97h2.96v-4.99h5.42Z"/><path class="cls-1" d="M106.49,223.22c-2.97,0-5.39-.91-7.26-2.74s-2.8-4.25-2.8-7.29v-.52c0-2.04.39-3.86,1.18-5.46s1.9-2.84,3.34-3.71c1.44-.87,3.09-1.3,4.94-1.3,2.77,0,4.96.88,6.55,2.62,1.59,1.75,2.39,4.23,2.39,7.44v2.21h-12.91c.17,1.32.7,2.39,1.58,3.19s2,1.2,3.34,1.2c2.09,0,3.72-.76,4.89-2.27l2.66,2.98c-.81,1.15-1.91,2.05-3.3,2.69-1.39.64-2.92.97-4.61.97ZM105.87,206.56c-1.07,0-1.95.36-2.61,1.09-.67.73-1.1,1.77-1.29,3.12h7.54v-.43c-.03-1.21-.35-2.14-.97-2.8s-1.51-.99-2.66-.99Z"/><path class="cls-1" d="M129.3,207.64c-.74-.1-1.39-.15-1.95-.15-2.05,0-3.39.69-4.03,2.08v13.27h-5.42v-20.28h5.12l.15,2.42c1.09-1.86,2.59-2.79,4.52-2.79.6,0,1.16.08,1.69.24l-.08,5.21Z"/><path class="cls-1" d="M136.89,202.56l.17,2.34c1.45-1.81,3.39-2.72,5.83-2.72,2.15,0,3.75.63,4.8,1.89,1.05,1.26,1.59,3.15,1.61,5.66v13.1h-5.42v-12.97c0-1.15-.25-1.98-.75-2.5s-1.33-.78-2.49-.78c-1.53,0-2.67.65-3.43,1.95v14.3h-5.42v-20.28h5.1Z"/><path class="cls-1" d="M165.16,222.84c-.25-.49-.43-1.09-.54-1.82-1.31,1.46-3.02,2.19-5.12,2.19-1.99,0-3.63-.58-4.94-1.72s-1.96-2.6-1.96-4.35c0-2.15.8-3.8,2.39-4.95,1.59-1.15,3.89-1.73,6.91-1.74h2.49v-1.16c0-.94-.24-1.69-.72-2.25-.48-.56-1.24-.84-2.28-.84-.91,0-1.63.22-2.15.66s-.78,1.04-.78,1.8h-5.42c0-1.17.36-2.26,1.09-3.26.72-1,1.75-1.78,3.07-2.35s2.81-.85,4.46-.85c2.5,0,4.48.63,5.95,1.88s2.2,3.02,2.2,5.29v8.79c.01,1.92.28,3.38.81,4.37v.32h-5.47ZM160.68,219.08c.8,0,1.54-.18,2.21-.53.67-.36,1.17-.83,1.5-1.43v-3.49h-2.02c-2.71,0-4.15.94-4.33,2.81l-.02.32c0,.67.24,1.23.71,1.67s1.12.66,1.95.66Z"/><path class="cls-1" d="M179.7,222.84h-5.44v-28.79h5.44v28.79Z"/><path class="cls-1" d="M208.23,215.68c0-1.06-.38-1.88-1.12-2.45-.75-.57-2.1-1.17-4.05-1.8s-3.49-1.25-4.63-1.87c-3.1-1.67-4.65-3.93-4.65-6.77,0-1.47.42-2.79,1.25-3.95.83-1.16,2.02-2.06,3.58-2.71,1.56-.65,3.3-.97,5.24-.97s3.69.35,5.21,1.06c1.52.71,2.71,1.7,3.55,2.99s1.27,2.75,1.27,4.39h-5.62c0-1.25-.39-2.22-1.18-2.91-.79-.69-1.89-1.04-3.32-1.04s-2.44.29-3.21.87-1.14,1.35-1.14,2.3c0,.89.45,1.63,1.34,2.23.89.6,2.21,1.16,3.95,1.69,3.2.96,5.53,2.16,6.99,3.58,1.46,1.42,2.19,3.2,2.19,5.32,0,2.36-.89,4.21-2.68,5.56-1.79,1.34-4.19,2.01-7.22,2.01-2.1,0-4.01-.38-5.73-1.15-1.72-.77-3.04-1.82-3.95-3.16-.91-1.34-1.36-2.89-1.36-4.65h5.64c0,3.01,1.8,4.52,5.4,4.52,1.34,0,2.38-.27,3.13-.82.75-.54,1.12-1.3,1.12-2.28Z"/><path class="cls-1" d="M226.65,223.22c-2.97,0-5.4-.91-7.26-2.74-1.87-1.82-2.8-4.25-2.8-7.29v-.52c0-2.04.39-3.86,1.18-5.46s1.9-2.84,3.35-3.71c1.44-.87,3.09-1.3,4.94-1.3,2.77,0,4.96.88,6.55,2.62,1.59,1.75,2.39,4.23,2.39,7.44v2.21h-12.91c.17,1.32.7,2.39,1.58,3.19s2,1.2,3.35,1.2c2.09,0,3.72-.76,4.89-2.27l2.66,2.98c-.81,1.15-1.91,2.05-3.3,2.69-1.39.64-2.92.97-4.61.97ZM226.03,206.56c-1.08,0-1.95.36-2.62,1.09-.67.73-1.1,1.77-1.28,3.12h7.53v-.43c-.03-1.21-.35-2.14-.97-2.8-.62-.66-1.51-.99-2.66-.99Z"/><path class="cls-1" d="M249.46,207.64c-.74-.1-1.39-.15-1.95-.15-2.05,0-3.39.69-4.03,2.08v13.27h-5.42v-20.28h5.12l.15,2.42c1.09-1.86,2.59-2.79,4.52-2.79.6,0,1.16.08,1.69.24l-.07,5.21Z"/><path class="cls-1" d="M259.66,216.23l3.77-13.66h5.66l-6.84,20.28h-5.17l-6.84-20.28h5.66l3.77,13.66Z"/><path class="cls-1" d="M280.8,223.22c-2.97,0-5.4-.91-7.26-2.74-1.87-1.82-2.8-4.25-2.8-7.29v-.52c0-2.04.39-3.86,1.18-5.46s1.9-2.84,3.35-3.71c1.44-.87,3.09-1.3,4.94-1.3,2.77,0,4.96.88,6.55,2.62,1.59,1.75,2.39,4.23,2.39,7.44v2.21h-12.91c.17,1.32.7,2.39,1.58,3.19s2,1.2,3.35,1.2c2.09,0,3.72-.76,4.89-2.27l2.66,2.98c-.81,1.15-1.91,2.05-3.3,2.69-1.39.64-2.92.97-4.61.97ZM280.18,206.56c-1.08,0-1.95.36-2.62,1.09-.67.73-1.1,1.77-1.28,3.12h7.53v-.43c-.03-1.21-.35-2.14-.97-2.8-.62-.66-1.51-.99-2.66-.99Z"/><path class="cls-1" d="M303.61,207.64c-.74-.1-1.39-.15-1.95-.15-2.05,0-3.39.69-4.03,2.08v13.27h-5.42v-20.28h5.12l.15,2.42c1.09-1.86,2.59-2.79,4.52-2.79.6,0,1.16.08,1.69.24l-.07,5.21Z"/><path class="cls-1" d="M332.54,211.02h-10.79v7.31h12.67v4.52h-18.29v-27.29h18.25v4.55h-12.63v6.5h10.79v4.4Z"/><path class="cls-1" d="M348.76,207.64c-.74-.1-1.39-.15-1.95-.15-2.05,0-3.39.69-4.03,2.08v13.27h-5.42v-20.28h5.12l.15,2.42c1.09-1.86,2.59-2.79,4.52-2.79.6,0,1.16.08,1.69.24l-.08,5.21Z"/><path class="cls-1" d="M362.76,207.64c-.74-.1-1.39-.15-1.95-.15-2.05,0-3.39.69-4.03,2.08v13.27h-5.42v-20.28h5.12l.15,2.42c1.09-1.86,2.59-2.79,4.52-2.79.6,0,1.16.08,1.69.24l-.07,5.21Z"/><path class="cls-1" d="M364.52,212.52c0-2.01.39-3.8,1.16-5.38.77-1.57,1.89-2.79,3.35-3.65,1.46-.86,3.14-1.29,5.07-1.29,2.74,0,4.97.84,6.7,2.51,1.73,1.67,2.7,3.95,2.9,6.82l.04,1.39c0,3.11-.87,5.61-2.61,7.49-1.74,1.88-4.07,2.82-6.99,2.82s-5.26-.94-7-2.81-2.61-4.42-2.61-7.65v-.24ZM369.94,212.9c0,1.93.36,3.4,1.09,4.42.72,1.02,1.76,1.53,3.11,1.53s2.34-.5,3.07-1.51c.74-1.01,1.11-2.62,1.11-4.83,0-1.89-.37-3.35-1.11-4.39-.74-1.04-1.77-1.56-3.11-1.56s-2.35.52-3.07,1.55c-.73,1.03-1.09,2.63-1.09,4.8Z"/><path class="cls-1" d="M398.46,207.64c-.74-.1-1.39-.15-1.95-.15-2.05,0-3.39.69-4.03,2.08v13.27h-5.42v-20.28h5.12l.15,2.42c1.09-1.86,2.59-2.79,4.52-2.79.6,0,1.16.08,1.69.24l-.08,5.21Z"/></g><g id="GIF部分"><rect class="cls-1" x="122.43" y="0" width="152.52" height="152.52" rx="76.26" ry="76.26"/><path d="M195.1,68.5c-.45,3.85.3,7.54.74,11.29.3,2.57.52,5.16,1.01,7.7.21,1.09.86,2.22,1.61,3.07.96,1.09,2.23,1.92,3.27,2.79,2.33-.71,3.5-2.29,3.36-4.31-.24-3.34,1.28-6.87-1.05-10.06-.48-.66-.24-1.94-.15-2.91.08-.88.33-1.77.67-2.6.95-2.35.31-4.31-1.44-5.95-.77-.72-1.73-1.26-2.65-1.8-1.09-.64-2.23-1.2-3.34-1.8-1.21-.66-2.4-1.42-4.13-.59,2.02,2.07,2.44,2.38,2.11,5.18Z"/><path d="M211.06,106.68c-2.08-1.33-4.42-1.63-6.86-1.65-2.17-.02-4.34-.26-6.49-.51-2.28-.27-4.51-.65-6.8.1-.77.26-1.76.16-2.56-.06-1.3-.37-1.57.26-1.73,1.45.98.52,1.79.87,2.52,1.35,1.73,1.15,3.44,2.34,5.14,3.54,1.65,1.17,3.37,1.51,5.37.94.91-.26,1.96-.09,2.94-.04,1.69.09,3.4.47,5.05.28,1.3-.15,2.69-.76,3.73-1.57,1.65-1.3,1.47-2.69-.31-3.84Z"/><path d="M175.28,55.85c-1.3-.46-2.46-1.18-3.72-1.56-1.17-.35-2.52-.07-4.11-.07v5.62c.82,1.33,1.76,2.82,2.67,4.32,1.43,2.36,3.9,3.07,6.07,1.54,1.74-1.23,2.36-3.2,2.3-5.22-.06-2.14-1.3-3.95-3.22-4.63Z"/><path d="M225.54,58.58c-2.08-1.27-4.33-2.31-6.09-4.08-.17-.17-.56-.13-.81-.18-.49,1.18-1,2.3-1.41,3.45-.12.33-.08.81.07,1.14,1.16,2.54,2.25,5.12,3.58,7.57.87,1.59,2.77,2.16,4.11,1.46,2.1-1.09,2.75-3.07,2.96-5.23.19-1.93-.84-3.17-2.41-4.13Z"/><rect class="cls-1" x="290.66" y="0" width="152.52" height="152.52" rx="76.26" ry="76.26" transform="translate(53.54 281.79) rotate(-45)"/><path d="M358.9,73.31c2.41,3.04,5.55,5.12,8.5,7.46,2.03,1.61,4.02,3.28,6.16,4.73.92.62,2.18.96,3.3,1.03,1.45.09,2.93-.21,4.28-.34,1.14-2.15.86-4.1-.67-5.42-2.54-2.19-3.95-5.76-7.86-6.38-.81-.13-1.54-1.2-2.17-1.95-.56-.68-1.02-1.49-1.37-2.31-.99-2.33-2.83-3.26-5.22-3.19-1.06.03-2.11.34-3.15.6-1.22.32-2.42.73-3.64,1.09-1.32.39-2.7.69-3.34,2.51,2.89.03,3.41-.04,5.16,2.17Z"/><path d="M397.18,89.03c-2.41.53-4.28,1.97-6.02,3.68-1.54,1.52-3.25,2.88-4.95,4.23-1.8,1.42-3.65,2.73-4.73,4.88-.36.73-1.13,1.36-1.86,1.77-1.18.66-.92,1.29-.19,2.25,1.06-.32,1.88-.65,2.74-.82,2.04-.42,4.09-.78,6.14-1.13,1.99-.34,3.45-1.32,4.46-3.13.46-.83,1.32-1.45,2.05-2.11,1.26-1.13,2.74-2.07,3.77-3.38.81-1.02,1.36-2.44,1.52-3.75.25-2.09-.86-2.95-2.93-2.5Z"/><path d="M335.94,78.38c-1.24.59-2.57.9-3.73,1.53-1.07.58-1.84,1.73-2.96,2.85,1.23,1.23,2.56,2.56,3.97,3.97,1.52.36,3.24.75,4.95,1.17,2.69.66,4.93-.58,5.38-3.2.36-2.11-.59-3.93-2.07-5.32-1.56-1.47-3.71-1.88-5.55-1Z"/><path d="M373.41,44.77c-2.37.57-4.69,1.43-7.19,1.42-.24,0-.49.3-.7.44.49,1.18.92,2.33,1.44,3.44.15.32.52.63.86.76,2.61.98,5.21,2.03,7.89,2.82,1.74.52,3.49-.43,3.94-1.87.71-2.25-.22-4.11-1.61-5.79-1.23-1.49-2.84-1.65-4.63-1.22Z"/></g></svg>