<?xml version="1.0" encoding="UTF-8"?><svg id="_レイヤー_2" xmlns="http://www.w3.org/2000/svg" viewBox="0 0 327 327"><defs><style>.cls-1{fill:#fff676;}</style></defs><g id="GIF部分"><rect class="cls-1" x="0" y="0" width="327" height="327" rx="163.5" ry="163.5"/><path d="M155.81,146.85c-.96,8.26.65,16.16,1.59,24.19.64,5.52,1.11,11.07,2.17,16.51.46,2.35,1.84,4.76,3.44,6.58,2.07,2.34,4.77,4.12,7,5.98,4.99-1.52,7.51-4.91,7.2-9.24-.52-7.17,2.74-14.72-2.24-21.58-1.04-1.43-.52-4.16-.32-6.25.18-1.89.71-3.8,1.43-5.57,2.03-5.04.65-9.24-3.08-12.75-1.65-1.55-3.72-2.69-5.69-3.86-2.33-1.38-4.78-2.56-7.16-3.86-2.6-1.42-5.15-3.05-8.86-1.26,4.33,4.43,5.23,5.1,4.53,11.1Z"/><path d="M190.01,228.72c-4.46-2.86-9.47-3.5-14.71-3.55-4.64-.04-9.29-.56-13.91-1.1-4.88-.57-9.67-1.4-14.57.22-1.65.55-3.77.35-5.5-.14-2.78-.79-3.36.55-3.7,3.12,2.1,1.11,3.84,1.87,5.4,2.9,3.72,2.46,7.37,5.02,11.01,7.6,3.53,2.5,7.23,3.24,11.51,2.02,1.95-.56,4.2-.19,6.31-.08,3.62.19,7.29,1.01,10.83.6,2.78-.33,5.77-1.63,7.99-3.37,3.55-2.78,3.16-5.77-.66-8.23Z"/><path d="M113.32,119.73c-2.78-.98-5.26-2.54-7.97-3.34-2.51-.74-5.41-.16-8.81-.16v12.04c1.76,2.85,3.78,6.04,5.73,9.27,3.08,5.07,8.36,6.59,13.01,3.31,3.74-2.64,5.06-6.86,4.94-11.2-.13-4.6-2.79-8.47-6.9-9.92Z"/><path d="M221.07,125.59c-4.47-2.73-9.29-4.94-13.05-8.75-.37-.37-1.19-.28-1.73-.39-1.05,2.53-2.14,4.93-3.02,7.4-.26.72-.17,1.74.15,2.45,2.48,5.45,4.83,10.98,7.68,16.23,1.86,3.42,5.94,4.63,8.82,3.14,4.49-2.33,5.89-6.57,6.34-11.21.4-4.13-1.81-6.8-5.18-8.86Z"/></g></svg>