<?xml version="1.0" encoding="UTF-8"?><svg id="_レイヤー_2" xmlns="http://www.w3.org/2000/svg" viewBox="0 0 221.65 40.81"><g id="_メニュー"><path d="M0,20.41c0-2.87.53-5.54,1.59-8.02s2.53-4.64,4.41-6.49,4.13-3.29,6.74-4.33c2.61-1.04,5.49-1.56,8.64-1.56s5.98.52,8.61,1.56c2.63,1.04,4.9,2.49,6.79,4.33,1.9,1.85,3.38,4.01,4.44,6.49,1.06,2.48,1.59,5.15,1.59,8.02s-.53,5.55-1.59,8.02c-1.06,2.48-2.54,4.64-4.44,6.49-1.9,1.85-4.16,3.29-6.79,4.33-2.63,1.04-5.5,1.56-8.61,1.56s-6.02-.52-8.64-1.56c-2.62-1.04-4.86-2.49-6.74-4.33s-3.35-4.01-4.41-6.49c-1.06-2.48-1.59-5.15-1.59-8.02ZM10.51,20.41c0,1.54.29,2.96.87,4.26.58,1.3,1.37,2.43,2.36,3.38.99.96,2.14,1.7,3.46,2.23,1.32.53,2.71.79,4.18.79s2.86-.26,4.18-.79c1.32-.53,2.48-1.27,3.49-2.23,1.01-.96,1.8-2.08,2.38-3.38.58-1.3.87-2.72.87-4.26s-.29-2.96-.87-4.25c-.58-1.3-1.38-2.43-2.38-3.38s-2.17-1.7-3.49-2.23c-1.32-.53-2.71-.79-4.18-.79s-2.86.26-4.18.79c-1.32.53-2.47,1.27-3.46,2.23s-1.78,2.08-2.36,3.38-.87,2.72-.87,4.25Z"/><path d="M59.22,1.08v38.66h-10.05V1.08h10.05Z"/><path d="M79.73,21.18L65.63,1.08h12l7.18,10.56,7.13-10.56h12l-14.15,20.1v18.56h-10.05v-18.56Z"/><path d="M117.51,1.08v21.02c0,1.13.04,2.28.13,3.46.08,1.18.34,2.25.77,3.2.43.96,1.1,1.74,2.03,2.33.92.6,2.22.9,3.9.9s2.96-.3,3.87-.9c.91-.6,1.58-1.38,2.03-2.33.44-.96.71-2.02.79-3.2.08-1.18.13-2.33.13-3.46V1.08h10v22.41c0,6.02-1.38,10.41-4.13,13.18-2.75,2.77-6.98,4.15-12.69,4.15s-9.95-1.38-12.72-4.15c-2.77-2.77-4.15-7.16-4.15-13.18V1.08h10.05Z"/><path d="M170.48,10.97c-1.09-.89-2.19-1.55-3.28-1.97-1.09-.43-2.15-.64-3.18-.64-1.3,0-2.36.31-3.18.92s-1.23,1.42-1.23,2.41c0,.68.21,1.25.62,1.69s.95.83,1.62,1.15c.67.33,1.42.61,2.26.85.84.24,1.67.5,2.49.77,3.28,1.09,5.68,2.56,7.2,4.38,1.52,1.83,2.28,4.21,2.28,7.15,0,1.98-.33,3.78-1,5.38-.67,1.61-1.64,2.98-2.92,4.13-1.28,1.15-2.85,2.03-4.72,2.67-1.86.63-3.97.95-6.33.95-4.89,0-9.42-1.45-13.59-4.36l4.31-8.1c1.5,1.33,2.99,2.33,4.46,2.97,1.47.65,2.92.97,4.36.97,1.64,0,2.86-.38,3.67-1.13.8-.75,1.21-1.61,1.21-2.56,0-.58-.1-1.08-.31-1.51-.21-.43-.55-.82-1.03-1.18-.48-.36-1.1-.69-1.87-1-.77-.31-1.7-.65-2.79-1.03-1.3-.41-2.57-.86-3.82-1.36-1.25-.5-2.36-1.15-3.33-1.97-.97-.82-1.76-1.85-2.36-3.1-.6-1.25-.9-2.83-.9-4.74s.32-3.65.95-5.2c.63-1.55,1.52-2.89,2.67-4,1.14-1.11,2.55-1.97,4.2-2.59,1.66-.62,3.51-.92,5.56-.92,1.91,0,3.91.27,6,.79,2.08.53,4.08,1.31,6,2.33l-4,7.84Z"/><path d="M204.37,9.59h-11.95v6.46h11.28v8.51h-11.28v6.67h11.95v8.51h-22V1.08h22v8.51Z"/><path d="M221.65,1.08v38.66h-10.05V1.08h10.05Z"/></g></svg>